<svg version="1.1" id="Layer_1" xmlns="http://www.w3.org/2000/svg" xmlns:xlink="http://www.w3.org/1999/xlink" x="0px" y="0px"
	 width="100%" viewBox="0 0 1416 1418" enable-background="new 0 0 1416 1418" xml:space="preserve">
<path fill="#000105" opacity="1.000000" stroke="none" 
	d="
M784.000000,1419.000000 
	C522.666687,1419.000000 261.833435,1419.000000 1.000105,1419.000000 
	C1.000070,946.333435 1.000070,473.666931 1.000035,1.000295 
	C472.999786,1.000197 944.999573,1.000197 1416.999512,1.000098 
	C1416.999756,473.666382 1416.999756,946.332764 1416.999878,1418.999512 
	C1206.166626,1419.000000 995.333313,1419.000000 784.000000,1419.000000 
M1202.141479,1121.672241 
	C1202.169800,1121.399170 1202.134521,1121.134644 1202.682861,1120.730591 
	C1248.390015,1067.420410 1269.142090,1004.864258 1270.994263,935.431274 
	C1271.888428,901.912720 1270.270264,868.484070 1266.103882,835.186829 
	C1261.732666,800.251343 1254.402466,766.023254 1241.923218,733.026062 
	C1224.645020,687.339844 1198.688110,647.708923 1160.345093,616.787842 
	C1122.642578,586.383301 1079.066528,568.730164 1032.345581,558.000671 
	C986.336365,547.434631 939.577393,543.736938 892.507385,543.663696 
	C782.357788,543.492126 672.207703,543.567688 562.057861,543.549500 
	C561.110046,543.549377 560.162231,543.635132 559.159058,543.683472 
	C559.159058,778.368469 559.159058,1012.715881 559.159058,1247.232056 
	C560.318115,1247.232056 561.139282,1247.231934 561.960388,1247.231934 
	C682.608765,1247.232056 803.257080,1247.235352 923.905457,1247.214111 
	C926.900635,1247.213623 929.913574,1247.103516 932.888306,1246.774170 
	C973.383179,1242.292114 1012.937378,1233.530762 1051.144043,1219.370117 
	C1068.386719,1212.979492 1085.099976,1205.160522 1101.942627,1198.799683 
	C1096.707275,1229.584473 1091.472046,1260.369263 1086.204956,1291.341064 
	C1105.746704,1291.341064 1124.804932,1291.341064 1144.132202,1291.341064 
	C1150.364868,1248.476196 1156.559204,1205.874634 1162.942261,1161.975098 
	C1164.217529,1164.870239 1164.982056,1166.468994 1165.636597,1168.111694 
	C1179.772583,1203.589478 1193.885620,1239.076294 1208.034058,1274.549194 
	C1210.243042,1280.087891 1211.160156,1287.750366 1215.286621,1290.474731 
	C1219.628662,1293.341309 1227.125732,1291.223755 1233.206177,1291.736328 
	C1237.084961,1292.063232 1238.629272,1290.386963 1240.004639,1287.050659 
	C1253.294312,1254.812988 1266.739014,1222.639282 1280.155273,1190.453857 
	C1283.898560,1181.473877 1287.694214,1172.515747 1291.465698,1163.547485 
	C1291.802612,1163.577393 1292.139526,1163.607178 1292.476318,1163.636963 
	C1297.894409,1206.259766 1303.312378,1248.882568 1308.710449,1291.348633 
	C1328.458984,1291.348633 1347.540527,1291.348633 1366.924194,1291.348633 
	C1355.615112,1216.557983 1344.357788,1142.109009 1333.090210,1067.592651 
	C1314.810181,1067.592651 1297.150269,1067.713379 1279.494873,1067.489258 
	C1276.026733,1067.445312 1274.604614,1068.619995 1273.395630,1071.669556 
	C1262.993164,1097.910278 1252.442627,1124.092529 1241.916870,1150.284302 
	C1237.124390,1162.209839 1232.288330,1174.117920 1227.043579,1187.094116 
	C1218.444336,1164.695190 1210.262207,1143.382812 1202.141479,1121.672241 
M505.889832,1137.500000 
	C505.889832,939.609497 505.889832,741.718994 505.889832,543.980469 
	C386.219177,543.980469 267.340973,543.980469 148.398270,543.980469 
	C148.398270,778.501282 148.398270,1012.593079 148.398270,1246.834717 
	C267.634766,1246.834717 386.643524,1246.834717 505.889832,1246.834717 
	C505.889832,1210.459839 505.889832,1174.479858 505.889832,1137.500000 
M199.796692,454.711639 
	C229.708496,477.836060 263.425934,491.752380 300.972931,496.152100 
	C355.721924,502.567505 405.999908,490.506836 450.337341,457.516083 
	C493.656616,425.282959 519.744385,382.220093 523.630737,327.883362 
	C528.007629,266.687042 504.473328,216.521271 457.558624,177.796310 
	C413.838440,141.708267 362.779846,127.601669 306.621613,132.913376 
	C252.213348,138.059570 206.222305,160.828293 171.038422,203.000900 
	C136.235535,244.716827 123.072823,292.906372 132.914108,346.612183 
	C141.036835,390.939362 164.405075,426.216125 199.796692,454.711639 
z"/>
<path fill="#FFFFFE" opacity="1.000000" stroke="none" 
	d="
M1102.053467,1197.989502 
	C1085.099976,1205.160522 1068.386719,1212.979492 1051.144043,1219.370117 
	C1012.937378,1233.530762 973.383179,1242.292114 932.888306,1246.774170 
	C929.913574,1247.103516 926.900635,1247.213623 923.905457,1247.214111 
	C803.257080,1247.235352 682.608765,1247.232056 561.960388,1247.231934 
	C561.139282,1247.231934 560.318115,1247.232056 559.159058,1247.232056 
	C559.159058,1012.715881 559.159058,778.368469 559.159058,543.683472 
	C560.162231,543.635132 561.110046,543.549377 562.057861,543.549500 
	C672.207703,543.567688 782.357788,543.492126 892.507385,543.663696 
	C939.577393,543.736938 986.336365,547.434631 1032.345581,558.000671 
	C1079.066528,568.730164 1122.642578,586.383301 1160.345093,616.787842 
	C1198.688110,647.708923 1224.645020,687.339844 1241.923218,733.026062 
	C1254.402466,766.023254 1261.732666,800.251343 1266.103882,835.186829 
	C1270.270264,868.484070 1271.888428,901.912720 1270.994263,935.431274 
	C1269.142090,1004.864258 1248.390015,1067.420410 1202.290283,1120.448242 
	C1195.618286,1103.828125 1189.400513,1087.466064 1182.962524,1071.191040 
	C1182.327637,1069.585938 1180.360596,1067.384888 1178.984863,1067.365479 
	C1160.850220,1067.109009 1142.710571,1067.194702 1124.314453,1067.194702 
	C1123.846558,1069.359863 1123.360229,1071.258911 1123.031616,1073.184937 
	C1118.825684,1097.832764 1114.623901,1122.481323 1110.459473,1147.136230 
	C1107.592285,1164.111450 1104.784546,1181.096680 1101.977417,1198.056885 
	C1102.004395,1198.036255 1102.053467,1197.989502 1102.053467,1197.989502 
M826.778931,824.499878 
	C826.778931,895.262756 826.778931,966.025635 826.778931,1037.105347 
	C840.007751,1037.105347 852.835632,1037.765747 865.563843,1036.921997 
	C878.628845,1036.055786 891.867432,1034.853149 904.556702,1031.818481 
	C945.757202,1021.965088 975.788025,998.178711 990.827637,957.829590 
	C1002.653137,926.103394 1003.732605,893.317200 996.472595,860.466370 
	C987.713440,820.831909 964.612122,792.739441 926.618896,777.488708 
	C907.694397,769.892334 887.841919,766.864563 867.597778,766.352783 
	C854.154724,766.012878 840.696045,766.288330 826.778931,766.288330 
	C826.778931,785.597839 826.778931,804.548889 826.778931,824.499878 
z"/>
<path fill="#FFF271" opacity="1.000000" stroke="none" 
	d="
M505.889832,1138.000000 
	C505.889832,1174.479858 505.889832,1210.459839 505.889832,1246.834717 
	C386.643524,1246.834717 267.634766,1246.834717 148.398270,1246.834717 
	C148.398270,1012.593079 148.398270,778.501282 148.398270,543.980469 
	C267.340973,543.980469 386.219177,543.980469 505.889832,543.980469 
	C505.889832,741.718994 505.889832,939.609497 505.889832,1138.000000 
z"/>
<path fill="#FFF271" opacity="1.000000" stroke="none" 
	d="
M199.525528,454.478394 
	C164.405075,426.216125 141.036835,390.939362 132.914108,346.612183 
	C123.072823,292.906372 136.235535,244.716827 171.038422,203.000900 
	C206.222305,160.828293 252.213348,138.059570 306.621613,132.913376 
	C362.779846,127.601669 413.838440,141.708267 457.558624,177.796310 
	C504.473328,216.521271 528.007629,266.687042 523.630737,327.883362 
	C519.744385,382.220093 493.656616,425.282959 450.337341,457.516083 
	C405.999908,490.506836 355.721924,502.567505 300.972931,496.152100 
	C263.425934,491.752380 229.708496,477.836060 199.525528,454.478394 
z"/>
<path fill="#FDFDFC" opacity="1.000000" stroke="none" 
	d="
M1202.080078,1122.070312 
	C1210.262207,1143.382812 1218.444336,1164.695190 1227.043579,1187.094116 
	C1232.288330,1174.117920 1237.124390,1162.209839 1241.916870,1150.284302 
	C1252.442627,1124.092529 1262.993164,1097.910278 1273.395630,1071.669556 
	C1274.604614,1068.619995 1276.026733,1067.445312 1279.494873,1067.489258 
	C1297.150269,1067.713379 1314.810181,1067.592651 1333.090210,1067.592651 
	C1344.357788,1142.109009 1355.615112,1216.557983 1366.924194,1291.348633 
	C1347.540527,1291.348633 1328.458984,1291.348633 1308.710449,1291.348633 
	C1303.312378,1248.882568 1297.894409,1206.259766 1292.476318,1163.636963 
	C1292.139526,1163.607178 1291.802612,1163.577393 1291.465698,1163.547485 
	C1287.694214,1172.515747 1283.898560,1181.473877 1280.155273,1190.453857 
	C1266.739014,1222.639282 1253.294312,1254.812988 1240.004639,1287.050659 
	C1238.629272,1290.386963 1237.084961,1292.063232 1233.206177,1291.736328 
	C1227.125732,1291.223755 1219.628662,1293.341309 1215.286621,1290.474731 
	C1211.160156,1287.750366 1210.243042,1280.087891 1208.034058,1274.549194 
	C1193.885620,1239.076294 1179.772583,1203.589478 1165.636597,1168.111694 
	C1164.982056,1166.468994 1164.217529,1164.870239 1162.942261,1161.975098 
	C1156.559204,1205.874634 1150.364868,1248.476196 1144.132202,1291.341064 
	C1124.804932,1291.341064 1105.746704,1291.341064 1086.204956,1291.341064 
	C1091.472046,1260.369263 1096.707275,1229.584473 1101.998047,1198.394531 
	C1102.053467,1197.989502 1102.004395,1198.036255 1102.253418,1197.834839 
	C1118.172241,1188.111084 1134.163696,1179.073364 1149.431641,1168.945435 
	C1169.150757,1155.864868 1186.037476,1139.391235 1202.080078,1122.070312 
z"/>
<path fill="#1B1A1A" opacity="1.000000" stroke="none" 
	d="
M1202.110840,1121.871338 
	C1186.037476,1139.391235 1169.150757,1155.864868 1149.431641,1168.945435 
	C1134.163696,1179.073364 1118.172241,1188.111084 1102.226318,1197.855469 
	C1104.784546,1181.096680 1107.592285,1164.111450 1110.459473,1147.136230 
	C1114.623901,1122.481323 1118.825684,1097.832764 1123.031616,1073.184937 
	C1123.360229,1071.258911 1123.846558,1069.359863 1124.314453,1067.194702 
	C1142.710571,1067.194702 1160.850220,1067.109009 1178.984863,1067.365479 
	C1180.360596,1067.384888 1182.327637,1069.585938 1182.962524,1071.191040 
	C1189.400513,1087.466064 1195.618286,1103.828125 1201.966797,1120.522217 
	C1202.134521,1121.134644 1202.169800,1121.399170 1202.110840,1121.871338 
z"/>
<path fill="#000105" opacity="1.000000" stroke="none" 
	d="
M826.778931,823.999878 
	C826.778931,804.548889 826.778931,785.597839 826.778931,766.288330 
	C840.696045,766.288330 854.154724,766.012878 867.597778,766.352783 
	C887.841919,766.864563 907.694397,769.892334 926.618896,777.488708 
	C964.612122,792.739441 987.713440,820.831909 996.472595,860.466370 
	C1003.732605,893.317200 1002.653137,926.103394 990.827637,957.829590 
	C975.788025,998.178711 945.757202,1021.965088 904.556702,1031.818481 
	C891.867432,1034.853149 878.628845,1036.055786 865.563843,1036.921997 
	C852.835632,1037.765747 840.007751,1037.105347 826.778931,1037.105347 
	C826.778931,966.025635 826.778931,895.262756 826.778931,823.999878 
z"/>
</svg>